<?xml version="1.0" encoding="UTF-8" standalone="no"?>
<svg
   xmlns:dc="http://purl.org/dc/elements/1.1/"
   xmlns:cc="http://creativecommons.org/ns#"
   xmlns:rdf="http://www.w3.org/1999/02/22-rdf-syntax-ns#"
   xmlns:svg="http://www.w3.org/2000/svg"
   xmlns="http://www.w3.org/2000/svg"
   xmlns:sodipodi="http://sodipodi.sourceforge.net/DTD/sodipodi-0.dtd"
   xmlns:inkscape="http://www.inkscape.org/namespaces/inkscape"
   id="Capa_1"
   data-name="Capa 1"
   viewBox="0 0 694.01001 197.74001"
   version="1.1"
   sodipodi:docname="Logo blue.svg"
   width="694.01001"
   height="197.74001"
   inkscape:version="1.0.1 (3bc2e813f5, 2020-09-07)">
  <metadata
     id="metadata30">
    <rdf:RDF>
      <cc:Work
         rdf:about="">
        <dc:format>image/svg+xml</dc:format>
        <dc:type
           rdf:resource="http://purl.org/dc/dcmitype/StillImage" />
        <dc:title>Logo blue</dc:title>
      </cc:Work>
    </rdf:RDF>
  </metadata>
  <sodipodi:namedview
     pagecolor="#ffffff"
     bordercolor="#666666"
     borderopacity="1"
     objecttolerance="10"
     gridtolerance="10"
     guidetolerance="10"
     inkscape:pageopacity="0"
     inkscape:pageshadow="2"
     inkscape:window-width="2286"
     inkscape:window-height="1368"
     id="namedview28"
     showgrid="false"
     inkscape:zoom="1.008"
     inkscape:cx="347.01"
     inkscape:cy="98.87"
     inkscape:window-x="1410"
     inkscape:window-y="0"
     inkscape:window-maximized="0"
     inkscape:current-layer="Capa_1"
     fit-margin-top="0"
     fit-margin-left="0"
     fit-margin-right="0"
     fit-margin-bottom="0" />
  <defs
     id="defs9">
    <style
       id="style2">.cls-1{fill:#002f4e;}.cls-2{fill:url(#Degradado_sin_nombre_33);}</style>
    <radialGradient
       id="Degradado_sin_nombre_33"
       cx="251.86"
       cy="500"
       r="98.870003"
       gradientUnits="userSpaceOnUse"
       gradientTransform="translate(-152.99,-401.13)">
      <stop
         offset="0"
         stop-color="aqua"
         id="stop4" />
      <stop
         offset="1"
         stop-color="#5aaee3"
         id="stop6" />
    </radialGradient>
  </defs>
  <title
     id="title11">Logo blue</title>
  <path
     class="cls-1"
     d="m 297.01,130.11 v 16 h -68 V 51.63 h 18 v 78.48 z"
     id="path13" />
  <path
     class="cls-1"
     d="M 322.52,146.11 H 304.45 V 51.76 h 18.07 z"
     id="path15" />
  <path
     class="cls-1"
     d="m 408.49,77.87 a 18.18,18.18 0 0 1 -1.16,6.08 23.63,23.63 0 0 1 -3.16,6 19,19 0 0 1 -4.84,4.59 12,12 0 0 1 -6.2,2 18.31,18.31 0 0 1 6.91,2 21.73,21.73 0 0 1 6.13,4.7 25.8,25.8 0 0 1 4.45,6.83 19.81,19.81 0 0 1 1.74,8.24 32.67,32.67 0 0 1 -2.35,13.06 22.58,22.58 0 0 1 -6.33,8.63 24.35,24.35 0 0 1 -9.35,4.7 44.8,44.8 0 0 1 -11.43,1.41 H 339.3 V 51.63 h 41.57 a 49.65,49.65 0 0 1 10.71,1.1 21.57,21.57 0 0 1 8.78,4 19.91,19.91 0 0 1 5.94,8 q 2.19,5.14 2.19,13.14 z m -51.11,12.18 h 22.2 a 10,10 0 0 0 4.71,-1 10.37,10.37 0 0 0 3.35,-2.72 12.13,12.13 0 0 0 2.07,-3.83 13.49,13.49 0 0 0 0.71,-4.22 10.93,10.93 0 0 0 -0.77,-4 11.23,11.23 0 0 0 -2.07,-3.37 10.88,10.88 0 0 0 -3,-2.34 8,8 0 0 0 -3.68,-0.91 h -23.52 z m 25.55,40 a 9.25,9.25 0 0 0 4.39,-1.1 12,12 0 0 0 3.62,-3 15.39,15.39 0 0 0 2.45,-4.13 12.25,12.25 0 0 0 0.9,-4.58 10.37,10.37 0 0 0 -3.55,-8 q -3.56,-3.22 -9.74,-3.23 h -23.62 v 24 z"
     id="path17" />
  <path
     class="cls-1"
     d="m 408.88,146.11 48.27,-94.35 h 1.86 l 48.28,94.35 h -19.67 l -7.36,-14.84 h -44.53 l -7.23,14.84 z m 35.62,-30.59 h 27 L 458.08,87 Z"
     id="path19" />
  <path
     class="cls-1"
     d="m 593.33,122.87 a 45.41,45.41 0 0 1 -7.61,10.26 50.27,50.27 0 0 1 -10,7.87 48.83,48.83 0 0 1 -25.1,6.91 47.1,47.1 0 0 1 -19,-3.87 49.52,49.52 0 0 1 -26.07,-26.08 48.43,48.43 0 0 1 0,-37.94 49.52,49.52 0 0 1 26.07,-26.08 47.1,47.1 0 0 1 19,-3.87 48.56,48.56 0 0 1 13.23,1.8 49.13,49.13 0 0 1 11.87,5.1 50.68,50.68 0 0 1 10,7.88 46.75,46.75 0 0 1 7.61,10.13 l -16.91,6.89 a 36.14,36.14 0 0 0 -4.84,-5.81 35.33,35.33 0 0 0 -6.13,-4.77 30.72,30.72 0 0 0 -7.1,-3.23 26.15,26.15 0 0 0 -7.74,-1.19 28,28 0 0 0 -12.07,2.64 31.88,31.88 0 0 0 -9.75,7 33.92,33.92 0 0 0 -6.58,10.26 31.75,31.75 0 0 0 0,24.46 34.12,34.12 0 0 0 6.58,10.2 31.85,31.85 0 0 0 9.75,7 27.84,27.84 0 0 0 12.07,2.65 26.15,26.15 0 0 0 7.74,-1.16 31.14,31.14 0 0 0 7.1,-3.23 33,33 0 0 0 6.13,-4.84 38.37,38.37 0 0 0 4.84,-5.87 z"
     id="path21" />
  <path
     class="cls-1"
     d="m 645.01,147.92 a 47.09,47.09 0 0 1 -19,-3.87 49.59,49.59 0 0 1 -26.1,-26.08 48.92,48.92 0 0 1 0,-38.14 49.42,49.42 0 0 1 26.1,-26.14 48.77,48.77 0 0 1 38.08,0 49.36,49.36 0 0 1 26.05,26.18 48.92,48.92 0 0 1 0,38.14 49.52,49.52 0 0 1 -26.07,26.08 47.44,47.44 0 0 1 -19.06,3.83 z m 0.07,-81.19 a 27.79,27.79 0 0 0 -12,2.65 32.77,32.77 0 0 0 -9.79,7 33.3,33.3 0 0 0 -6.63,10.26 31.75,31.75 0 0 0 0,24.46 34,34 0 0 0 6.63,10.26 32.12,32.12 0 0 0 9.79,7.1 28.7,28.7 0 0 0 24.09,0 32,32 0 0 0 9.79,-7.1 34,34 0 0 0 6.63,-10.26 31.75,31.75 0 0 0 0,-24.46 33.3,33.3 0 0 0 -6.63,-10.26 32.64,32.64 0 0 0 -9.79,-7 27.74,27.74 0 0 0 -12.16,-2.65 z"
     id="path23" />
  <path
     class="cls-2"
     d="M 98.87,0 A 98.87,98.87 0 1 0 197.74,98.87 98.87,98.87 0 0 0 98.87,0 Z m 43.85,58.87 -19.36,6.57 -16.94,-35.16 z m -9.8,40 -13,26.93 H 77.8 l -13,-26.93 13,-26.88 h 42.21 z m -15.8,-32.8 H 80.63 L 98.87,28.2 Z M 91.33,30.23 74.39,65.39 55.01,58.87 Z M 51.52,63.87 71.8,70.75 59.68,95.87 h -8.16 z m 0,37.95 h 8.16 l 12.14,25.19 -20.3,6.86 z m 3.55,37.12 19.34,-6.56 16.92,35.12 z m 43.8,30.59 -18.22,-37.83 h 36.45 z m 7.55,-2 16.92,-35.12 19.34,6.56 z m 39.81,-33.66 -20.3,-6.89 12.14,-25.11 h 8.16 z m 0,-38 h -8.16 l -12.12,-25.15 20.28,-6.85 z"
     id="path25"
     style="fill:url(#Degradado_sin_nombre_33)" />
</svg>
